<svg width="320" height="240" viewBox="0 0 320 240" fill="none" xmlns="http://www.w3.org/2000/svg">
<rect width="320" height="240" fill="#E5E5E5"/>
<rect width="320" height="240" fill="white"/>
<rect x="12" y="145" width="295" height="20" rx="3" fill="#762828"/>
<path d="M59.6938 139.576C57.6458 139.576 55.8858 139.128 54.4138 138.232C52.9418 137.304 51.8218 136.248 51.0538 135.064H50.8618L50.4778 139H47.8378V103.48H51.1978V121.048C51.6138 119.672 52.5258 118.52 53.9338 117.592C55.3418 116.664 57.0858 116.2 59.1658 116.2C60.8618 116.2 62.3498 116.52 63.6298 117.16C64.9098 117.8 65.9658 118.664 66.7978 119.752C67.6618 120.808 68.3018 122.056 68.7178 123.496C69.1658 124.936 69.3898 126.44 69.3898 128.008C69.3898 129.544 69.1818 131.016 68.7657 132.424C68.3818 133.8 67.7898 135.016 66.9898 136.072C66.1898 137.128 65.1818 137.976 63.9658 138.616C62.7498 139.256 61.3258 139.576 59.6938 139.576ZM59.3098 136.744C60.5258 136.744 61.5498 136.488 62.3818 135.976C63.2138 135.464 63.8858 134.808 64.3978 134.008C64.9098 133.176 65.2778 132.248 65.5018 131.224C65.7258 130.2 65.8378 129.176 65.8378 128.152C65.8378 126.808 65.6618 125.576 65.3098 124.456C64.9898 123.336 64.5258 122.376 63.9178 121.576C63.3098 120.776 62.5578 120.152 61.6618 119.704C60.7658 119.256 59.7738 119.032 58.6858 119.032C56.9898 119.032 55.4538 119.544 54.0778 120.568C52.7338 121.592 51.7738 123.016 51.1978 124.84V131.896C52.1258 133.432 53.3258 134.632 54.7978 135.496C56.2698 136.328 57.7738 136.744 59.3098 136.744ZM78.5671 116.92V131.512C78.5671 132.504 78.6791 133.336 78.9031 134.008C79.1591 134.68 79.4791 135.224 79.8631 135.64C80.2791 136.024 80.7591 136.312 81.3031 136.504C81.8791 136.664 82.5031 136.744 83.1751 136.744C83.9751 136.744 84.7591 136.632 85.5271 136.408C86.3271 136.152 87.0631 135.784 87.7351 135.304C88.4071 134.824 88.9991 134.232 89.5111 133.528C90.0231 132.824 90.4231 132.008 90.7111 131.08V116.92H94.0711V139H91.4311L91.0471 134.872H90.8551C90.4391 136.216 89.5111 137.336 88.0711 138.232C86.6311 139.128 84.8391 139.576 82.6951 139.576C81.6711 139.576 80.6951 139.448 79.7671 139.192C78.8711 138.936 78.0871 138.52 77.4151 137.944C76.7431 137.336 76.1991 136.552 75.7831 135.592C75.3991 134.6 75.2071 133.384 75.2071 131.944V116.92H78.5671ZM105.205 139H101.845V103.48H105.205V139ZM128.306 139V124.408C128.306 122.456 127.858 121.08 126.962 120.28C126.066 119.448 124.946 119.032 123.602 119.032C121.97 119.032 120.498 119.544 119.186 120.568C117.874 121.56 116.93 122.984 116.354 124.84V139H112.994V116.92H115.634L116.018 121.048H116.21C116.626 119.704 117.49 118.568 118.802 117.64C120.146 116.68 121.874 116.2 123.986 116.2C125.906 116.2 127.506 116.632 128.786 117.496C130.098 118.328 130.93 119.512 131.282 121.048C131.602 120.408 132.002 119.8 132.482 119.224C132.962 118.648 133.538 118.136 134.21 117.688C134.882 117.24 135.65 116.888 136.514 116.632C137.378 116.344 138.354 116.2 139.442 116.2C140.434 116.2 141.378 116.344 142.274 116.632C143.202 116.888 144.002 117.32 144.674 117.928C145.378 118.536 145.938 119.336 146.354 120.328C146.77 121.32 146.978 122.536 146.978 123.976V139H143.618V124.408C143.618 122.456 143.17 121.08 142.274 120.28C141.378 119.448 140.258 119.032 138.914 119.032C137.282 119.032 135.81 119.544 134.498 120.568C133.186 121.56 132.242 122.984 131.666 124.84V139H128.306ZM157.604 139H154.244V116.92H157.604V139ZM153.524 108.856C153.524 108.216 153.748 107.64 154.196 107.128C154.676 106.616 155.252 106.36 155.924 106.36C156.564 106.36 157.14 106.616 157.652 107.128C158.164 107.64 158.42 108.216 158.42 108.856C158.42 109.528 158.164 110.104 157.652 110.584C157.14 111.032 156.564 111.256 155.924 111.256C155.252 111.256 154.676 111.032 154.196 110.584C153.748 110.104 153.524 109.528 153.524 108.856ZM180.576 139V124.408C180.576 122.488 180.144 121.112 179.28 120.28C178.416 119.448 177.312 119.032 175.968 119.032C175.168 119.032 174.368 119.16 173.568 119.416C172.8 119.672 172.08 120.056 171.408 120.568C170.736 121.048 170.144 121.656 169.632 122.392C169.12 123.096 168.72 123.912 168.432 124.84V139H165.072V116.92H167.712L168.096 121.048H168.288C168.704 119.704 169.632 118.568 171.072 117.64C172.512 116.68 174.304 116.2 176.448 116.2C177.472 116.2 178.432 116.344 179.328 116.632C180.256 116.888 181.056 117.32 181.728 117.928C182.4 118.536 182.928 119.336 183.312 120.328C183.728 121.32 183.936 122.536 183.936 123.976V139H180.576ZM194.588 139H191.228V116.92H194.588V139ZM190.508 108.856C190.508 108.216 190.732 107.64 191.18 107.128C191.66 106.616 192.236 106.36 192.908 106.36C193.548 106.36 194.124 106.616 194.636 107.128C195.148 107.64 195.404 108.216 195.404 108.856C195.404 109.528 195.148 110.104 194.636 110.584C194.124 111.032 193.548 111.256 192.908 111.256C192.236 111.256 191.66 111.032 191.18 110.584C190.732 110.104 190.508 109.528 190.508 108.856ZM217.369 139V124.408C217.369 122.456 216.921 121.08 216.025 120.28C215.129 119.448 214.009 119.032 212.665 119.032C211.033 119.032 209.561 119.544 208.249 120.568C206.937 121.56 205.993 122.984 205.417 124.84V139H202.057V116.92H204.697L205.081 121.048H205.273C205.689 119.704 206.553 118.568 207.865 117.64C209.209 116.68 210.937 116.2 213.049 116.2C214.969 116.2 216.569 116.632 217.849 117.496C219.161 118.328 219.993 119.512 220.345 121.048C220.665 120.408 221.065 119.8 221.545 119.224C222.025 118.648 222.601 118.136 223.273 117.688C223.945 117.24 224.713 116.888 225.577 116.632C226.441 116.344 227.417 116.2 228.505 116.2C229.497 116.2 230.441 116.344 231.337 116.632C232.265 116.888 233.065 117.32 233.737 117.928C234.441 118.536 235.001 119.336 235.417 120.328C235.833 121.32 236.041 122.536 236.041 123.976V139H232.681V124.408C232.681 122.456 232.233 121.08 231.337 120.28C230.441 119.448 229.321 119.032 227.977 119.032C226.345 119.032 224.873 119.544 223.561 120.568C222.249 121.56 221.305 122.984 220.729 124.84V139H217.369ZM257.323 139L256.939 135.064H256.747C256.363 135.672 255.851 136.248 255.211 136.792C254.571 137.336 253.851 137.816 253.051 138.232C252.283 138.648 251.435 138.968 250.507 139.192C249.611 139.448 248.715 139.576 247.819 139.576C245.707 139.576 244.123 138.968 243.067 137.752C242.011 136.504 241.483 134.952 241.483 133.096C241.483 131.272 241.947 129.816 242.875 128.728C243.803 127.64 244.939 126.824 246.283 126.28C247.627 125.736 249.035 125.384 250.507 125.224C252.011 125.064 253.323 124.984 254.443 124.984H256.603V124.408C256.603 123.192 256.427 122.264 256.075 121.624C255.755 120.984 255.275 120.44 254.635 119.992C254.091 119.64 253.499 119.4 252.859 119.272C252.251 119.112 251.435 119.032 250.411 119.032C249.067 119.032 247.883 119.208 246.859 119.56C245.835 119.912 244.843 120.376 243.883 120.952L243.115 118.072C245.259 116.824 247.819 116.2 250.795 116.2C251.979 116.2 253.099 116.312 254.155 116.536C255.211 116.728 256.139 117.08 256.939 117.592C257.867 118.168 258.603 118.984 259.147 120.04C259.691 121.096 259.963 122.408 259.963 123.976V139H257.323ZM248.827 136.744C250.139 136.744 251.531 136.328 253.003 135.496C254.475 134.664 255.675 133.464 256.603 131.896V127.432H256.171C254.859 127.432 253.547 127.48 252.234 127.576C250.923 127.672 249.723 127.912 248.635 128.296C247.579 128.68 246.715 129.24 246.043 129.976C245.371 130.68 245.035 131.656 245.035 132.904C245.035 134.152 245.371 135.112 246.043 135.784C246.747 136.424 247.675 136.744 248.827 136.744ZM270.861 139H267.501V103.48H270.861V139Z" fill="black"/>
<path d="M24.0141 157.684L27.1501 149.76H28.4941V159H27.4441V152.014L24.6161 159H23.3561L20.5141 152V159H19.4641V149.76H20.8781L24.0141 157.684ZM31.8669 159H30.8869V152.56H31.8669V159ZM30.6769 150.208C30.6769 150.021 30.7423 149.853 30.8729 149.704C31.0129 149.555 31.1809 149.48 31.3769 149.48C31.5636 149.48 31.7316 149.555 31.8809 149.704C32.0303 149.853 32.1049 150.021 32.1049 150.208C32.1049 150.404 32.0303 150.572 31.8809 150.712C31.7316 150.843 31.5636 150.908 31.3769 150.908C31.1809 150.908 31.0129 150.843 30.8729 150.712C30.7423 150.572 30.6769 150.404 30.6769 150.208ZM38.5671 159V154.744C38.5671 154.184 38.4411 153.783 38.1891 153.54C37.9371 153.297 37.6151 153.176 37.2231 153.176C36.9898 153.176 36.7565 153.213 36.5231 153.288C36.2991 153.363 36.0891 153.475 35.8931 153.624C35.6971 153.764 35.5245 153.941 35.3751 154.156C35.2258 154.361 35.1091 154.599 35.0251 154.87V159H34.0451V152.56H34.8151L34.9271 153.764H34.9831C35.1045 153.372 35.3751 153.041 35.7951 152.77C36.2151 152.49 36.7378 152.35 37.3631 152.35C37.6618 152.35 37.9418 152.392 38.2031 152.476C38.4738 152.551 38.7071 152.677 38.9031 152.854C39.0991 153.031 39.2531 153.265 39.3651 153.554C39.4865 153.843 39.5471 154.198 39.5471 154.618V159H38.5671ZM42.654 159H41.674V152.56H42.654V159ZM41.464 150.208C41.464 150.021 41.5294 149.853 41.66 149.704C41.8 149.555 41.968 149.48 42.164 149.48C42.3507 149.48 42.5187 149.555 42.668 149.704C42.8174 149.853 42.892 150.021 42.892 150.208C42.892 150.404 42.8174 150.572 42.668 150.712C42.5187 150.843 42.3507 150.908 42.164 150.908C41.968 150.908 41.8 150.843 41.66 150.712C41.5294 150.572 41.464 150.404 41.464 150.208ZM49.2982 159V154.744C49.2982 154.175 49.1676 153.773 48.9062 153.54C48.6449 153.297 48.3182 153.176 47.9262 153.176C47.4502 153.176 47.0209 153.325 46.6382 153.624C46.2556 153.913 45.9802 154.329 45.8122 154.87V159H44.8322V152.56H45.6022L45.7142 153.764H45.7702C45.8916 153.372 46.1436 153.041 46.5262 152.77C46.9182 152.49 47.4222 152.35 48.0382 152.35C48.5982 152.35 49.0649 152.476 49.4382 152.728C49.8209 152.971 50.0636 153.316 50.1662 153.764C50.2596 153.577 50.3762 153.4 50.5162 153.232C50.6562 153.064 50.8242 152.915 51.0202 152.784C51.2162 152.653 51.4402 152.551 51.6922 152.476C51.9442 152.392 52.2289 152.35 52.5462 152.35C52.8356 152.35 53.1109 152.392 53.3722 152.476C53.6429 152.551 53.8762 152.677 54.0722 152.854C54.2776 153.031 54.4409 153.265 54.5622 153.554C54.6836 153.843 54.7442 154.198 54.7442 154.618V159H53.7642V154.744C53.7642 154.175 53.6336 153.773 53.3722 153.54C53.1109 153.297 52.7842 153.176 52.3922 153.176C51.9162 153.176 51.4869 153.325 51.1042 153.624C50.7216 153.913 50.4462 154.329 50.2782 154.87V159H49.2982ZM60.9515 159L60.8395 157.852H60.7835C60.6715 158.029 60.5222 158.197 60.3355 158.356C60.1488 158.515 59.9388 158.655 59.7055 158.776C59.4815 158.897 59.2342 158.991 58.9635 159.056C58.7022 159.131 58.4408 159.168 58.1795 159.168C57.5635 159.168 57.1015 158.991 56.7935 158.636C56.4855 158.272 56.3315 157.819 56.3315 157.278C56.3315 156.746 56.4668 156.321 56.7375 156.004C57.0082 155.687 57.3395 155.449 57.7315 155.29C58.1235 155.131 58.5342 155.029 58.9635 154.982C59.4022 154.935 59.7848 154.912 60.1115 154.912H60.7415V154.744C60.7415 154.389 60.6902 154.119 60.5875 153.932C60.4942 153.745 60.3542 153.587 60.1675 153.456C60.0088 153.353 59.8362 153.283 59.6495 153.246C59.4722 153.199 59.2342 153.176 58.9355 153.176C58.5435 153.176 58.1982 153.227 57.8995 153.33C57.6008 153.433 57.3115 153.568 57.0315 153.736L56.8075 152.896C57.4328 152.532 58.1795 152.35 59.0475 152.35C59.3928 152.35 59.7195 152.383 60.0275 152.448C60.3355 152.504 60.6062 152.607 60.8395 152.756C61.1102 152.924 61.3248 153.162 61.4835 153.47C61.6422 153.778 61.7215 154.161 61.7215 154.618V159H60.9515ZM58.4735 158.342C58.8562 158.342 59.2622 158.221 59.6915 157.978C60.1208 157.735 60.4708 157.385 60.7415 156.928V155.626H60.6155C60.2328 155.626 59.8502 155.64 59.4675 155.668C59.0848 155.696 58.7348 155.766 58.4175 155.878C58.1095 155.99 57.8575 156.153 57.6615 156.368C57.4655 156.573 57.3675 156.858 57.3675 157.222C57.3675 157.586 57.4655 157.866 57.6615 158.062C57.8668 158.249 58.1375 158.342 58.4735 158.342ZM64.9001 159H63.9201V148.64H64.9001V159ZM74.0617 159.168C73.4644 159.168 72.9511 159.037 72.5217 158.776C72.0924 158.505 71.7657 158.197 71.5417 157.852H71.4857L71.3737 159H70.6037V148.64H71.5837V153.764C71.7051 153.363 71.9711 153.027 72.3817 152.756C72.7924 152.485 73.3011 152.35 73.9077 152.35C74.4024 152.35 74.8364 152.443 75.2097 152.63C75.5831 152.817 75.8911 153.069 76.1337 153.386C76.3857 153.694 76.5724 154.058 76.6937 154.478C76.8244 154.898 76.8897 155.337 76.8897 155.794C76.8897 156.242 76.8291 156.671 76.7077 157.082C76.5957 157.483 76.4231 157.838 76.1897 158.146C75.9564 158.454 75.6624 158.701 75.3077 158.888C74.9531 159.075 74.5377 159.168 74.0617 159.168ZM73.9497 158.342C74.3044 158.342 74.6031 158.267 74.8457 158.118C75.0884 157.969 75.2844 157.777 75.4337 157.544C75.5831 157.301 75.6904 157.031 75.7557 156.732C75.8211 156.433 75.8537 156.135 75.8537 155.836C75.8537 155.444 75.8024 155.085 75.6997 154.758C75.6064 154.431 75.4711 154.151 75.2937 153.918C75.1164 153.685 74.8971 153.503 74.6357 153.372C74.3744 153.241 74.0851 153.176 73.7677 153.176C73.2731 153.176 72.8251 153.325 72.4237 153.624C72.0317 153.923 71.7517 154.338 71.5837 154.87V156.928C71.8544 157.376 72.2044 157.726 72.6337 157.978C73.0631 158.221 73.5017 158.342 73.9497 158.342ZM79.7205 159H78.7405V148.64H79.7205V159ZM84.8204 152.35C85.3897 152.35 85.8797 152.448 86.2904 152.644C86.7011 152.831 87.0371 153.087 87.2984 153.414C87.5691 153.731 87.7651 154.1 87.8864 154.52C88.0171 154.931 88.0824 155.365 88.0824 155.822C88.0824 156.279 88.0171 156.713 87.8864 157.124C87.7651 157.525 87.5737 157.88 87.3124 158.188C87.0511 158.487 86.7151 158.725 86.3044 158.902C85.9031 159.079 85.4271 159.168 84.8764 159.168C84.3071 159.168 83.8124 159.075 83.3924 158.888C82.9817 158.701 82.6411 158.454 82.3704 158.146C82.0997 157.829 81.8991 157.465 81.7684 157.054C81.6377 156.643 81.5724 156.209 81.5724 155.752C81.5724 155.295 81.6377 154.861 81.7684 154.45C81.8991 154.039 82.0951 153.68 82.3564 153.372C82.6271 153.055 82.9677 152.807 83.3784 152.63C83.7891 152.443 84.2697 152.35 84.8204 152.35ZM84.8624 158.426C85.2357 158.426 85.5577 158.356 85.8284 158.216C86.1084 158.076 86.3371 157.889 86.5144 157.656C86.7011 157.413 86.8364 157.138 86.9204 156.83C87.0044 156.513 87.0464 156.181 87.0464 155.836C87.0464 155.481 86.9997 155.141 86.9064 154.814C86.8224 154.487 86.6871 154.203 86.5004 153.96C86.3137 153.708 86.0757 153.507 85.7864 153.358C85.5064 153.209 85.1704 153.134 84.7784 153.134C84.3957 153.134 84.0691 153.204 83.7984 153.344C83.5277 153.484 83.3037 153.671 83.1264 153.904C82.9491 154.137 82.8184 154.413 82.7344 154.73C82.6504 155.038 82.6084 155.365 82.6084 155.71C82.6084 156.065 82.6504 156.405 82.7344 156.732C82.8277 157.059 82.9631 157.348 83.1404 157.6C83.3271 157.852 83.5604 158.053 83.8404 158.202C84.1297 158.351 84.4704 158.426 84.8624 158.426ZM90.722 157.012C90.274 156.835 89.952 156.555 89.756 156.172C89.56 155.78 89.462 155.36 89.462 154.912C89.462 154.548 89.5227 154.212 89.644 153.904C89.7654 153.596 89.938 153.325 90.162 153.092C90.3954 152.859 90.6707 152.677 90.988 152.546C91.3147 152.415 91.6834 152.35 92.094 152.35C92.3367 152.35 92.5747 152.373 92.808 152.42C93.0507 152.467 93.2607 152.537 93.438 152.63C93.83 152.621 94.194 152.597 94.53 152.56C94.8754 152.523 95.1974 152.462 95.496 152.378L95.566 152.434L95.468 153.204L95.398 153.274L94.124 153.218L94.11 153.26C94.3527 153.456 94.53 153.713 94.642 154.03C94.754 154.347 94.81 154.655 94.81 154.954C94.81 155.262 94.7494 155.556 94.628 155.836C94.516 156.116 94.348 156.363 94.124 156.578C93.9 156.783 93.62 156.951 93.284 157.082C92.9574 157.203 92.5794 157.264 92.15 157.264C92.0474 157.264 91.9587 157.264 91.884 157.264C91.8094 157.255 91.7394 157.25 91.674 157.25C91.478 157.315 91.3287 157.404 91.226 157.516C91.1327 157.628 91.086 157.721 91.086 157.796C91.086 157.889 91.1467 157.973 91.268 158.048C91.3987 158.113 91.604 158.16 91.884 158.188L93.242 158.328C93.55 158.356 93.8347 158.421 94.096 158.524C94.3667 158.617 94.6 158.743 94.796 158.902C94.992 159.051 95.146 159.233 95.258 159.448C95.3794 159.672 95.44 159.924 95.44 160.204C95.44 160.475 95.3794 160.75 95.258 161.03C95.1367 161.319 94.9547 161.567 94.712 161.772C94.4694 161.977 94.1334 162.145 93.704 162.276C93.2747 162.407 92.78 162.472 92.22 162.472C91.744 162.472 91.3147 162.421 90.932 162.318C90.5587 162.225 90.2414 162.089 89.98 161.912C89.728 161.744 89.532 161.548 89.392 161.324C89.2614 161.1 89.196 160.862 89.196 160.61C89.196 160.423 89.2334 160.237 89.308 160.05C89.3827 159.873 89.4807 159.705 89.602 159.546C89.7234 159.387 89.8634 159.247 90.022 159.126C90.19 159.005 90.3627 158.911 90.54 158.846V158.79C90.1574 158.613 89.966 158.37 89.966 158.062C89.966 157.866 90.036 157.689 90.176 157.53C90.3254 157.371 90.5074 157.217 90.722 157.068V157.012ZM92.15 156.564C92.4114 156.564 92.64 156.522 92.836 156.438C93.0414 156.345 93.214 156.228 93.354 156.088C93.494 155.939 93.6014 155.766 93.676 155.57C93.7507 155.374 93.788 155.169 93.788 154.954C93.788 154.739 93.7507 154.52 93.676 154.296C93.6014 154.072 93.4894 153.871 93.34 153.694C93.2 153.507 93.0227 153.358 92.808 153.246C92.5934 153.134 92.346 153.078 92.066 153.078C91.7954 153.078 91.5574 153.134 91.352 153.246C91.156 153.349 90.988 153.484 90.848 153.652C90.7174 153.82 90.6194 154.007 90.554 154.212C90.4887 154.417 90.456 154.623 90.456 154.828C90.456 155.043 90.4887 155.253 90.554 155.458C90.6287 155.663 90.736 155.85 90.876 156.018C91.0254 156.177 91.2027 156.307 91.408 156.41C91.6227 156.513 91.87 156.564 92.15 156.564ZM91.702 159.07C91.4874 159.07 91.2867 159.112 91.1 159.196C90.9227 159.28 90.764 159.387 90.624 159.518C90.4934 159.649 90.386 159.793 90.302 159.952C90.2274 160.12 90.19 160.283 90.19 160.442C90.19 160.797 90.3767 161.077 90.75 161.282C91.1327 161.497 91.646 161.604 92.29 161.604C92.598 161.604 92.8827 161.576 93.144 161.52C93.4147 161.473 93.6434 161.394 93.83 161.282C94.026 161.179 94.18 161.049 94.292 160.89C94.404 160.741 94.46 160.559 94.46 160.344C94.46 159.924 94.2314 159.621 93.774 159.434C93.326 159.257 92.6354 159.135 91.702 159.07ZM100.484 153.218H99.4057V152.7L100.512 152.56L100.722 150.614H101.464V152.56H102.976V153.218H101.464V157.684C101.464 157.983 101.506 158.179 101.59 158.272C101.683 158.365 101.823 158.412 102.01 158.412C102.224 158.412 102.416 158.379 102.584 158.314C102.752 158.249 102.901 158.169 103.032 158.076L103.228 158.818C103.069 158.893 102.859 158.967 102.598 159.042C102.346 159.117 102.066 159.154 101.758 159.154C101.459 159.154 101.226 159.112 101.058 159.028C100.89 158.944 100.764 158.832 100.68 158.692C100.596 158.552 100.54 158.398 100.512 158.23C100.493 158.053 100.484 157.88 100.484 157.712V153.218ZM109.1 159V154.744C109.1 154.175 108.974 153.773 108.722 153.54C108.47 153.297 108.148 153.176 107.756 153.176C107.523 153.176 107.29 153.213 107.056 153.288C106.832 153.363 106.622 153.475 106.426 153.624C106.23 153.764 106.058 153.941 105.908 154.156C105.759 154.361 105.642 154.599 105.558 154.87V159H104.578V148.64H105.558V153.764C105.68 153.372 105.941 153.041 106.342 152.77C106.753 152.49 107.271 152.35 107.896 152.35C108.195 152.35 108.475 152.392 108.736 152.476C109.007 152.551 109.24 152.677 109.436 152.854C109.632 153.031 109.786 153.265 109.898 153.554C110.02 153.843 110.08 154.198 110.08 154.618V159H109.1ZM115.091 152.35C115.913 152.35 116.547 152.56 116.995 152.98C117.443 153.391 117.667 153.974 117.667 154.73C117.667 154.889 117.658 155.052 117.639 155.22C117.621 155.379 117.588 155.495 117.541 155.57H112.823V155.71C112.823 156.065 112.87 156.405 112.963 156.732C113.057 157.059 113.197 157.348 113.383 157.6C113.57 157.852 113.803 158.053 114.083 158.202C114.373 158.351 114.713 158.426 115.105 158.426C115.329 158.426 115.549 158.403 115.763 158.356C115.978 158.3 116.183 158.235 116.379 158.16C116.575 158.076 116.757 157.987 116.925 157.894C117.093 157.801 117.243 157.707 117.373 157.614L117.541 158.412C117.42 158.487 117.271 158.571 117.093 158.664C116.916 158.748 116.72 158.827 116.505 158.902C116.291 158.977 116.053 159.037 115.791 159.084C115.539 159.14 115.273 159.168 114.993 159.168C114.471 159.168 114.009 159.079 113.607 158.902C113.206 158.715 112.87 158.468 112.599 158.16C112.329 157.843 112.123 157.479 111.983 157.068C111.843 156.657 111.773 156.228 111.773 155.78C111.773 155.323 111.843 154.889 111.983 154.478C112.133 154.058 112.347 153.689 112.627 153.372C112.907 153.055 113.253 152.807 113.663 152.63C114.083 152.443 114.559 152.35 115.091 152.35ZM115.049 153.134C114.433 153.134 113.953 153.297 113.607 153.624C113.271 153.941 113.043 154.343 112.921 154.828H116.743C116.753 154.781 116.757 154.739 116.757 154.702C116.757 154.665 116.757 154.623 116.757 154.576C116.757 154.343 116.711 154.137 116.617 153.96C116.524 153.773 116.398 153.619 116.239 153.498C116.081 153.377 115.899 153.288 115.693 153.232C115.488 153.167 115.273 153.134 115.049 153.134ZM123.906 159V154.744C123.906 154.175 123.775 153.773 123.514 153.54C123.252 153.297 122.926 153.176 122.534 153.176C122.058 153.176 121.628 153.325 121.246 153.624C120.863 153.913 120.588 154.329 120.42 154.87V159H119.44V152.56H120.21L120.322 153.764H120.378C120.499 153.372 120.751 153.041 121.134 152.77C121.526 152.49 122.03 152.35 122.646 152.35C123.206 152.35 123.672 152.476 124.046 152.728C124.428 152.971 124.671 153.316 124.774 153.764C124.867 153.577 124.984 153.4 125.124 153.232C125.264 153.064 125.432 152.915 125.628 152.784C125.824 152.653 126.048 152.551 126.3 152.476C126.552 152.392 126.836 152.35 127.154 152.35C127.443 152.35 127.718 152.392 127.98 152.476C128.25 152.551 128.484 152.677 128.68 152.854C128.885 153.031 129.048 153.265 129.17 153.554C129.291 153.843 129.352 154.198 129.352 154.618V159H128.372V154.744C128.372 154.175 128.241 153.773 127.98 153.54C127.718 153.297 127.392 153.176 127 153.176C126.524 153.176 126.094 153.325 125.712 153.624C125.329 153.913 125.054 154.329 124.886 154.87V159H123.906ZM134.355 152.35C135.176 152.35 135.811 152.56 136.259 152.98C136.707 153.391 136.931 153.974 136.931 154.73C136.931 154.889 136.922 155.052 136.903 155.22C136.884 155.379 136.852 155.495 136.805 155.57H132.087V155.71C132.087 156.065 132.134 156.405 132.227 156.732C132.32 157.059 132.46 157.348 132.647 157.6C132.834 157.852 133.067 158.053 133.347 158.202C133.636 158.351 133.977 158.426 134.369 158.426C134.593 158.426 134.812 158.403 135.027 158.356C135.242 158.3 135.447 158.235 135.643 158.16C135.839 158.076 136.021 157.987 136.189 157.894C136.357 157.801 136.506 157.707 136.637 157.614L136.805 158.412C136.684 158.487 136.534 158.571 136.357 158.664C136.18 158.748 135.984 158.827 135.769 158.902C135.554 158.977 135.316 159.037 135.055 159.084C134.803 159.14 134.537 159.168 134.257 159.168C133.734 159.168 133.272 159.079 132.871 158.902C132.47 158.715 132.134 158.468 131.863 158.16C131.592 157.843 131.387 157.479 131.247 157.068C131.107 156.657 131.037 156.228 131.037 155.78C131.037 155.323 131.107 154.889 131.247 154.478C131.396 154.058 131.611 153.689 131.891 153.372C132.171 153.055 132.516 152.807 132.927 152.63C133.347 152.443 133.823 152.35 134.355 152.35ZM134.313 153.134C133.697 153.134 133.216 153.297 132.871 153.624C132.535 153.941 132.306 154.343 132.185 154.828H136.007C136.016 154.781 136.021 154.739 136.021 154.702C136.021 154.665 136.021 154.623 136.021 154.576C136.021 154.343 135.974 154.137 135.881 153.96C135.788 153.773 135.662 153.619 135.503 153.498C135.344 153.377 135.162 153.288 134.957 153.232C134.752 153.167 134.537 153.134 134.313 153.134ZM142.471 153.218H141.393V152.7L142.471 152.574C142.471 152.051 142.485 151.603 142.513 151.23C142.55 150.857 142.597 150.544 142.653 150.292C142.709 150.031 142.77 149.821 142.835 149.662C142.91 149.494 142.98 149.359 143.045 149.256C143.222 148.995 143.442 148.817 143.703 148.724C143.964 148.621 144.235 148.57 144.515 148.57C144.552 148.57 144.618 148.575 144.711 148.584C144.804 148.584 144.907 148.593 145.019 148.612C145.14 148.621 145.262 148.645 145.383 148.682C145.504 148.71 145.621 148.752 145.733 148.808L145.495 149.634C145.467 149.634 145.402 149.62 145.299 149.592C145.196 149.555 145.08 149.517 144.949 149.48C144.828 149.433 144.692 149.391 144.543 149.354C144.403 149.317 144.277 149.298 144.165 149.298C144.025 149.298 143.908 149.34 143.815 149.424C143.722 149.499 143.647 149.629 143.591 149.816C143.544 149.993 143.507 150.231 143.479 150.53C143.46 150.829 143.451 151.197 143.451 151.636V152.56H144.963V153.218H143.451V159H142.471V153.218ZM149.037 152.35C149.607 152.35 150.097 152.448 150.507 152.644C150.918 152.831 151.254 153.087 151.515 153.414C151.786 153.731 151.982 154.1 152.103 154.52C152.234 154.931 152.299 155.365 152.299 155.822C152.299 156.279 152.234 156.713 152.103 157.124C151.982 157.525 151.791 157.88 151.529 158.188C151.268 158.487 150.932 158.725 150.521 158.902C150.12 159.079 149.644 159.168 149.093 159.168C148.524 159.168 148.029 159.075 147.609 158.888C147.199 158.701 146.858 158.454 146.587 158.146C146.317 157.829 146.116 157.465 145.985 157.054C145.855 156.643 145.789 156.209 145.789 155.752C145.789 155.295 145.855 154.861 145.985 154.45C146.116 154.039 146.312 153.68 146.573 153.372C146.844 153.055 147.185 152.807 147.595 152.63C148.006 152.443 148.487 152.35 149.037 152.35ZM149.079 158.426C149.453 158.426 149.775 158.356 150.045 158.216C150.325 158.076 150.554 157.889 150.731 157.656C150.918 157.413 151.053 157.138 151.137 156.83C151.221 156.513 151.263 156.181 151.263 155.836C151.263 155.481 151.217 155.141 151.123 154.814C151.039 154.487 150.904 154.203 150.717 153.96C150.531 153.708 150.293 153.507 150.003 153.358C149.723 153.209 149.387 153.134 148.995 153.134C148.613 153.134 148.286 153.204 148.015 153.344C147.745 153.484 147.521 153.671 147.343 153.904C147.166 154.137 147.035 154.413 146.951 154.73C146.867 155.038 146.825 155.365 146.825 155.71C146.825 156.065 146.867 156.405 146.951 156.732C147.045 157.059 147.18 157.348 147.357 157.6C147.544 157.852 147.777 158.053 148.057 158.202C148.347 158.351 148.687 158.426 149.079 158.426ZM157.529 153.596C157.38 153.512 157.23 153.447 157.081 153.4C156.932 153.344 156.787 153.316 156.647 153.316C156.46 153.316 156.283 153.367 156.115 153.47C155.947 153.573 155.793 153.713 155.653 153.89C155.513 154.067 155.387 154.273 155.275 154.506C155.172 154.739 155.093 154.982 155.037 155.234V159H154.057V152.56H154.827L154.939 153.974H154.995C155.06 153.759 155.144 153.554 155.247 153.358C155.359 153.162 155.49 152.989 155.639 152.84C155.798 152.691 155.975 152.574 156.171 152.49C156.367 152.397 156.591 152.35 156.843 152.35C157.02 152.35 157.207 152.383 157.403 152.448C157.599 152.504 157.739 152.579 157.823 152.672L157.529 153.596ZM163.508 153.75H168.492V149.76H169.542V159H168.492V154.73H163.508V159H162.458V149.76H163.508V153.75ZM172.85 152.56V156.816C172.85 157.105 172.882 157.348 172.948 157.544C173.022 157.74 173.116 157.899 173.228 158.02C173.349 158.132 173.489 158.216 173.648 158.272C173.816 158.319 173.998 158.342 174.194 158.342C174.427 158.342 174.656 158.309 174.88 158.244C175.113 158.169 175.328 158.062 175.524 157.922C175.72 157.782 175.892 157.609 176.042 157.404C176.191 157.199 176.308 156.961 176.392 156.69V152.56H177.372V159H176.602L176.49 157.796H176.434C176.312 158.188 176.042 158.515 175.622 158.776C175.202 159.037 174.679 159.168 174.054 159.168C173.755 159.168 173.47 159.131 173.2 159.056C172.938 158.981 172.71 158.86 172.514 158.692C172.318 158.515 172.159 158.286 172.038 158.006C171.926 157.717 171.87 157.362 171.87 156.942V152.56H172.85ZM180.437 157.012C179.989 156.835 179.667 156.555 179.471 156.172C179.275 155.78 179.177 155.36 179.177 154.912C179.177 154.548 179.238 154.212 179.359 153.904C179.48 153.596 179.653 153.325 179.877 153.092C180.11 152.859 180.386 152.677 180.703 152.546C181.03 152.415 181.398 152.35 181.809 152.35C182.052 152.35 182.29 152.373 182.523 152.42C182.766 152.467 182.976 152.537 183.153 152.63C183.545 152.621 183.909 152.597 184.245 152.56C184.59 152.523 184.912 152.462 185.211 152.378L185.281 152.434L185.183 153.204L185.113 153.274L183.839 153.218L183.825 153.26C184.068 153.456 184.245 153.713 184.357 154.03C184.469 154.347 184.525 154.655 184.525 154.954C184.525 155.262 184.464 155.556 184.343 155.836C184.231 156.116 184.063 156.363 183.839 156.578C183.615 156.783 183.335 156.951 182.999 157.082C182.672 157.203 182.294 157.264 181.865 157.264C181.762 157.264 181.674 157.264 181.599 157.264C181.524 157.255 181.454 157.25 181.389 157.25C181.193 157.315 181.044 157.404 180.941 157.516C180.848 157.628 180.801 157.721 180.801 157.796C180.801 157.889 180.862 157.973 180.983 158.048C181.114 158.113 181.319 158.16 181.599 158.188L182.957 158.328C183.265 158.356 183.55 158.421 183.811 158.524C184.082 158.617 184.315 158.743 184.511 158.902C184.707 159.051 184.861 159.233 184.973 159.448C185.094 159.672 185.155 159.924 185.155 160.204C185.155 160.475 185.094 160.75 184.973 161.03C184.852 161.319 184.67 161.567 184.427 161.772C184.184 161.977 183.848 162.145 183.419 162.276C182.99 162.407 182.495 162.472 181.935 162.472C181.459 162.472 181.03 162.421 180.647 162.318C180.274 162.225 179.956 162.089 179.695 161.912C179.443 161.744 179.247 161.548 179.107 161.324C178.976 161.1 178.911 160.862 178.911 160.61C178.911 160.423 178.948 160.237 179.023 160.05C179.098 159.873 179.196 159.705 179.317 159.546C179.438 159.387 179.578 159.247 179.737 159.126C179.905 159.005 180.078 158.911 180.255 158.846V158.79C179.872 158.613 179.681 158.37 179.681 158.062C179.681 157.866 179.751 157.689 179.891 157.53C180.04 157.371 180.222 157.217 180.437 157.068V157.012ZM181.865 156.564C182.126 156.564 182.355 156.522 182.551 156.438C182.756 156.345 182.929 156.228 183.069 156.088C183.209 155.939 183.316 155.766 183.391 155.57C183.466 155.374 183.503 155.169 183.503 154.954C183.503 154.739 183.466 154.52 183.391 154.296C183.316 154.072 183.204 153.871 183.055 153.694C182.915 153.507 182.738 153.358 182.523 153.246C182.308 153.134 182.061 153.078 181.781 153.078C181.51 153.078 181.272 153.134 181.067 153.246C180.871 153.349 180.703 153.484 180.563 153.652C180.432 153.82 180.334 154.007 180.269 154.212C180.204 154.417 180.171 154.623 180.171 154.828C180.171 155.043 180.204 155.253 180.269 155.458C180.344 155.663 180.451 155.85 180.591 156.018C180.74 156.177 180.918 156.307 181.123 156.41C181.338 156.513 181.585 156.564 181.865 156.564ZM181.417 159.07C181.202 159.07 181.002 159.112 180.815 159.196C180.638 159.28 180.479 159.387 180.339 159.518C180.208 159.649 180.101 159.793 180.017 159.952C179.942 160.12 179.905 160.283 179.905 160.442C179.905 160.797 180.092 161.077 180.465 161.282C180.848 161.497 181.361 161.604 182.005 161.604C182.313 161.604 182.598 161.576 182.859 161.52C183.13 161.473 183.358 161.394 183.545 161.282C183.741 161.179 183.895 161.049 184.007 160.89C184.119 160.741 184.175 160.559 184.175 160.344C184.175 159.924 183.946 159.621 183.489 159.434C183.041 159.257 182.35 159.135 181.417 159.07ZM189.492 152.35C190.062 152.35 190.552 152.448 190.962 152.644C191.373 152.831 191.709 153.087 191.97 153.414C192.241 153.731 192.437 154.1 192.558 154.52C192.689 154.931 192.754 155.365 192.754 155.822C192.754 156.279 192.689 156.713 192.558 157.124C192.437 157.525 192.246 157.88 191.984 158.188C191.723 158.487 191.387 158.725 190.976 158.902C190.575 159.079 190.099 159.168 189.548 159.168C188.979 159.168 188.484 159.075 188.064 158.888C187.654 158.701 187.313 158.454 187.042 158.146C186.772 157.829 186.571 157.465 186.44 157.054C186.31 156.643 186.244 156.209 186.244 155.752C186.244 155.295 186.31 154.861 186.44 154.45C186.571 154.039 186.767 153.68 187.028 153.372C187.299 153.055 187.64 152.807 188.05 152.63C188.461 152.443 188.942 152.35 189.492 152.35ZM189.534 158.426C189.908 158.426 190.23 158.356 190.5 158.216C190.78 158.076 191.009 157.889 191.186 157.656C191.373 157.413 191.508 157.138 191.592 156.83C191.676 156.513 191.718 156.181 191.718 155.836C191.718 155.481 191.672 155.141 191.578 154.814C191.494 154.487 191.359 154.203 191.172 153.96C190.986 153.708 190.748 153.507 190.458 153.358C190.178 153.209 189.842 153.134 189.45 153.134C189.068 153.134 188.741 153.204 188.47 153.344C188.2 153.484 187.976 153.671 187.798 153.904C187.621 154.137 187.49 154.413 187.406 154.73C187.322 155.038 187.28 155.365 187.28 155.71C187.28 156.065 187.322 156.405 187.406 156.732C187.5 157.059 187.635 157.348 187.812 157.6C187.999 157.852 188.232 158.053 188.512 158.202C188.802 158.351 189.142 158.426 189.534 158.426ZM194.372 160.092L194.918 159.07H194.568V157.81H195.674V159.28L194.652 160.358L194.372 160.092ZM202.258 152.56V156.816C202.258 157.105 202.291 157.348 202.356 157.544C202.431 157.74 202.524 157.899 202.636 158.02C202.757 158.132 202.897 158.216 203.056 158.272C203.224 158.319 203.406 158.342 203.602 158.342C203.835 158.342 204.064 158.309 204.288 158.244C204.521 158.169 204.736 158.062 204.932 157.922C205.128 157.782 205.301 157.609 205.45 157.404C205.599 157.199 205.716 156.961 205.8 156.69V152.56H206.78V159H206.01L205.898 157.796H205.842C205.721 158.188 205.45 158.515 205.03 158.776C204.61 159.037 204.087 159.168 203.462 159.168C203.163 159.168 202.879 159.131 202.608 159.056C202.347 158.981 202.118 158.86 201.922 158.692C201.726 158.515 201.567 158.286 201.446 158.006C201.334 157.717 201.278 157.362 201.278 156.942V152.56H202.258ZM210.853 153.134C210.405 153.134 210.078 153.218 209.873 153.386C209.677 153.545 209.579 153.764 209.579 154.044C209.579 154.137 209.593 154.235 209.621 154.338C209.649 154.441 209.7 154.539 209.775 154.632C209.859 154.716 209.966 154.8 210.097 154.884C210.237 154.959 210.419 155.019 210.643 155.066L211.637 155.29C212.029 155.374 212.342 155.491 212.575 155.64C212.818 155.78 213.004 155.934 213.135 156.102C213.266 156.27 213.35 156.443 213.387 156.62C213.434 156.788 213.457 156.947 213.457 157.096C213.457 157.385 213.396 157.656 213.275 157.908C213.163 158.16 212.995 158.379 212.771 158.566C212.556 158.753 212.29 158.897 211.973 159C211.656 159.112 211.301 159.168 210.909 159.168C210.414 159.168 209.957 159.098 209.537 158.958C209.117 158.809 208.781 158.645 208.529 158.468L208.781 157.558C209.117 157.866 209.49 158.09 209.901 158.23C210.312 158.37 210.68 158.44 211.007 158.44C211.474 158.44 211.828 158.328 212.071 158.104C212.314 157.871 212.435 157.628 212.435 157.376C212.435 157.292 212.43 157.199 212.421 157.096C212.412 156.984 212.374 156.872 212.309 156.76C212.244 156.648 212.146 156.545 212.015 156.452C211.884 156.349 211.698 156.27 211.455 156.214L210.111 155.878C209.803 155.803 209.551 155.705 209.355 155.584C209.159 155.463 209.005 155.332 208.893 155.192C208.781 155.043 208.702 154.889 208.655 154.73C208.608 154.562 208.585 154.394 208.585 154.226C208.585 153.657 208.795 153.204 209.215 152.868C209.644 152.523 210.214 152.35 210.923 152.35C211.287 152.35 211.679 152.401 212.099 152.504C212.519 152.597 212.874 152.737 213.163 152.924L212.897 153.764C212.71 153.605 212.43 153.461 212.057 153.33C211.693 153.199 211.292 153.134 210.853 153.134ZM216.123 159H215.143V152.56H216.123V159ZM214.933 150.208C214.933 150.021 214.998 149.853 215.129 149.704C215.269 149.555 215.437 149.48 215.633 149.48C215.819 149.48 215.987 149.555 216.137 149.704C216.286 149.853 216.361 150.021 216.361 150.208C216.361 150.404 216.286 150.572 216.137 150.712C215.987 150.843 215.819 150.908 215.633 150.908C215.437 150.908 215.269 150.843 215.129 150.712C214.998 150.572 214.933 150.404 214.933 150.208ZM222.823 159V154.744C222.823 154.184 222.697 153.783 222.445 153.54C222.193 153.297 221.871 153.176 221.479 153.176C221.246 153.176 221.012 153.213 220.779 153.288C220.555 153.363 220.345 153.475 220.149 153.624C219.953 153.764 219.78 153.941 219.631 154.156C219.482 154.361 219.365 154.599 219.281 154.87V159H218.301V152.56H219.071L219.183 153.764H219.239C219.36 153.372 219.631 153.041 220.051 152.77C220.471 152.49 220.994 152.35 221.619 152.35C221.918 152.35 222.198 152.392 222.459 152.476C222.73 152.551 222.963 152.677 223.159 152.854C223.355 153.031 223.509 153.265 223.621 153.554C223.742 153.843 223.803 154.198 223.803 154.618V159H222.823ZM226.812 157.012C226.364 156.835 226.042 156.555 225.846 156.172C225.65 155.78 225.552 155.36 225.552 154.912C225.552 154.548 225.613 154.212 225.734 153.904C225.855 153.596 226.028 153.325 226.252 153.092C226.485 152.859 226.761 152.677 227.078 152.546C227.405 152.415 227.773 152.35 228.184 152.35C228.427 152.35 228.665 152.373 228.898 152.42C229.141 152.467 229.351 152.537 229.528 152.63C229.92 152.621 230.284 152.597 230.62 152.56C230.965 152.523 231.287 152.462 231.586 152.378L231.656 152.434L231.558 153.204L231.488 153.274L230.214 153.218L230.2 153.26C230.443 153.456 230.62 153.713 230.732 154.03C230.844 154.347 230.9 154.655 230.9 154.954C230.9 155.262 230.839 155.556 230.718 155.836C230.606 156.116 230.438 156.363 230.214 156.578C229.99 156.783 229.71 156.951 229.374 157.082C229.047 157.203 228.669 157.264 228.24 157.264C228.137 157.264 228.049 157.264 227.974 157.264C227.899 157.255 227.829 157.25 227.764 157.25C227.568 157.315 227.419 157.404 227.316 157.516C227.223 157.628 227.176 157.721 227.176 157.796C227.176 157.889 227.237 157.973 227.358 158.048C227.489 158.113 227.694 158.16 227.974 158.188L229.332 158.328C229.64 158.356 229.925 158.421 230.186 158.524C230.457 158.617 230.69 158.743 230.886 158.902C231.082 159.051 231.236 159.233 231.348 159.448C231.469 159.672 231.53 159.924 231.53 160.204C231.53 160.475 231.469 160.75 231.348 161.03C231.227 161.319 231.045 161.567 230.802 161.772C230.559 161.977 230.223 162.145 229.794 162.276C229.365 162.407 228.87 162.472 228.31 162.472C227.834 162.472 227.405 162.421 227.022 162.318C226.649 162.225 226.331 162.089 226.07 161.912C225.818 161.744 225.622 161.548 225.482 161.324C225.351 161.1 225.286 160.862 225.286 160.61C225.286 160.423 225.323 160.237 225.398 160.05C225.473 159.873 225.571 159.705 225.692 159.546C225.813 159.387 225.953 159.247 226.112 159.126C226.28 159.005 226.453 158.911 226.63 158.846V158.79C226.247 158.613 226.056 158.37 226.056 158.062C226.056 157.866 226.126 157.689 226.266 157.53C226.415 157.371 226.597 157.217 226.812 157.068V157.012ZM228.24 156.564C228.501 156.564 228.73 156.522 228.926 156.438C229.131 156.345 229.304 156.228 229.444 156.088C229.584 155.939 229.691 155.766 229.766 155.57C229.841 155.374 229.878 155.169 229.878 154.954C229.878 154.739 229.841 154.52 229.766 154.296C229.691 154.072 229.579 153.871 229.43 153.694C229.29 153.507 229.113 153.358 228.898 153.246C228.683 153.134 228.436 153.078 228.156 153.078C227.885 153.078 227.647 153.134 227.442 153.246C227.246 153.349 227.078 153.484 226.938 153.652C226.807 153.82 226.709 154.007 226.644 154.212C226.579 154.417 226.546 154.623 226.546 154.828C226.546 155.043 226.579 155.253 226.644 155.458C226.719 155.663 226.826 155.85 226.966 156.018C227.115 156.177 227.293 156.307 227.498 156.41C227.713 156.513 227.96 156.564 228.24 156.564ZM227.792 159.07C227.577 159.07 227.377 159.112 227.19 159.196C227.013 159.28 226.854 159.387 226.714 159.518C226.583 159.649 226.476 159.793 226.392 159.952C226.317 160.12 226.28 160.283 226.28 160.442C226.28 160.797 226.467 161.077 226.84 161.282C227.223 161.497 227.736 161.604 228.38 161.604C228.688 161.604 228.973 161.576 229.234 161.52C229.505 161.473 229.733 161.394 229.92 161.282C230.116 161.179 230.27 161.049 230.382 160.89C230.494 160.741 230.55 160.559 230.55 160.344C230.55 159.924 230.321 159.621 229.864 159.434C229.416 159.257 228.725 159.135 227.792 159.07ZM236.765 149.76C237.064 149.741 237.414 149.727 237.815 149.718C238.216 149.699 238.585 149.69 238.921 149.69C239.752 149.69 240.419 149.895 240.923 150.306C241.427 150.707 241.679 151.305 241.679 152.098C241.679 152.471 241.6 152.812 241.441 153.12C241.292 153.419 241.054 153.675 240.727 153.89C241.287 154.077 241.726 154.371 242.043 154.772C242.36 155.173 242.519 155.682 242.519 156.298C242.519 156.69 242.449 157.059 242.309 157.404C242.169 157.749 241.954 158.053 241.665 158.314C241.376 158.575 241.016 158.785 240.587 158.944C240.158 159.093 239.654 159.168 239.075 159.168C238.618 159.168 238.193 159.149 237.801 159.112C237.409 159.084 237.064 159.047 236.765 159V149.76ZM239.033 158.244C239.789 158.244 240.363 158.071 240.755 157.726C241.156 157.371 241.357 156.858 241.357 156.186C241.357 155.654 241.175 155.234 240.811 154.926C240.456 154.609 239.854 154.45 239.005 154.45C238.8 154.45 238.594 154.455 238.389 154.464C238.193 154.464 238.002 154.469 237.815 154.478V158.202C238.179 158.23 238.585 158.244 239.033 158.244ZM238.669 153.652C239.257 153.652 239.71 153.503 240.027 153.204C240.354 152.905 240.517 152.499 240.517 151.986C240.517 151.575 240.405 151.244 240.181 150.992C239.957 150.74 239.565 150.614 239.005 150.614C238.8 150.614 238.594 150.619 238.389 150.628C238.193 150.628 238.002 150.633 237.815 150.642V153.638C237.946 153.647 238.081 153.652 238.221 153.652C238.37 153.652 238.52 153.652 238.669 153.652ZM245.133 152.56V156.816C245.133 157.105 245.166 157.348 245.231 157.544C245.306 157.74 245.399 157.899 245.511 158.02C245.632 158.132 245.772 158.216 245.931 158.272C246.099 158.319 246.281 158.342 246.477 158.342C246.71 158.342 246.939 158.309 247.163 158.244C247.396 158.169 247.611 158.062 247.807 157.922C248.003 157.782 248.176 157.609 248.325 157.404C248.474 157.199 248.591 156.961 248.675 156.69V152.56H249.655V159H248.885L248.773 157.796H248.717C248.596 158.188 248.325 158.515 247.905 158.776C247.485 159.037 246.962 159.168 246.337 159.168C246.038 159.168 245.754 159.131 245.483 159.056C245.222 158.981 244.993 158.86 244.797 158.692C244.601 158.515 244.442 158.286 244.321 158.006C244.209 157.717 244.153 157.362 244.153 156.942V152.56H245.133ZM252.902 159H251.922V148.64H252.902V159ZM259.64 159V154.744C259.64 154.175 259.509 153.773 259.248 153.54C258.987 153.297 258.66 153.176 258.268 153.176C257.792 153.176 257.363 153.325 256.98 153.624C256.597 153.913 256.322 154.329 256.154 154.87V159H255.174V152.56H255.944L256.056 153.764H256.112C256.233 153.372 256.485 153.041 256.868 152.77C257.26 152.49 257.764 152.35 258.38 152.35C258.94 152.35 259.407 152.476 259.78 152.728C260.163 152.971 260.405 153.316 260.508 153.764C260.601 153.577 260.718 153.4 260.858 153.232C260.998 153.064 261.166 152.915 261.362 152.784C261.558 152.653 261.782 152.551 262.034 152.476C262.286 152.392 262.571 152.35 262.888 152.35C263.177 152.35 263.453 152.392 263.714 152.476C263.985 152.551 264.218 152.677 264.414 152.854C264.619 153.031 264.783 153.265 264.904 153.554C265.025 153.843 265.086 154.198 265.086 154.618V159H264.106V154.744C264.106 154.175 263.975 153.773 263.714 153.54C263.453 153.297 263.126 153.176 262.734 153.176C262.258 153.176 261.829 153.325 261.446 153.624C261.063 153.913 260.788 154.329 260.62 154.87V159H259.64ZM271.293 159L271.181 157.852H271.125C271.013 158.029 270.864 158.197 270.677 158.356C270.491 158.515 270.281 158.655 270.047 158.776C269.823 158.897 269.576 158.991 269.305 159.056C269.044 159.131 268.783 159.168 268.521 159.168C267.905 159.168 267.443 158.991 267.135 158.636C266.827 158.272 266.673 157.819 266.673 157.278C266.673 156.746 266.809 156.321 267.079 156.004C267.35 155.687 267.681 155.449 268.073 155.29C268.465 155.131 268.876 155.029 269.305 154.982C269.744 154.935 270.127 154.912 270.453 154.912H271.083V154.744C271.083 154.389 271.032 154.119 270.929 153.932C270.836 153.745 270.696 153.587 270.509 153.456C270.351 153.353 270.178 153.283 269.991 153.246C269.814 153.199 269.576 153.176 269.277 153.176C268.885 153.176 268.54 153.227 268.241 153.33C267.943 153.433 267.653 153.568 267.373 153.736L267.149 152.896C267.775 152.532 268.521 152.35 269.389 152.35C269.735 152.35 270.061 152.383 270.369 152.448C270.677 152.504 270.948 152.607 271.181 152.756C271.452 152.924 271.667 153.162 271.825 153.47C271.984 153.778 272.063 154.161 272.063 154.618V159H271.293ZM268.815 158.342C269.198 158.342 269.604 158.221 270.033 157.978C270.463 157.735 270.813 157.385 271.083 156.928V155.626H270.957C270.575 155.626 270.192 155.64 269.809 155.668C269.427 155.696 269.077 155.766 268.759 155.878C268.451 155.99 268.199 156.153 268.003 156.368C267.807 156.573 267.709 156.858 267.709 157.222C267.709 157.586 267.807 157.866 268.003 158.062C268.209 158.249 268.479 158.342 268.815 158.342ZM284.456 151.3C284.157 151.104 283.788 150.941 283.35 150.81C282.911 150.679 282.412 150.614 281.852 150.614C281.226 150.614 280.699 150.707 280.27 150.894C279.84 151.071 279.49 151.323 279.22 151.65C278.958 151.977 278.767 152.373 278.646 152.84C278.534 153.297 278.478 153.806 278.478 154.366C278.478 155.645 278.758 156.611 279.318 157.264C279.878 157.917 280.713 158.244 281.824 158.244C282.412 158.244 282.953 158.16 283.448 157.992C283.942 157.824 284.339 157.619 284.638 157.376L284.918 158.314C284.544 158.538 284.092 158.739 283.56 158.916C283.037 159.084 282.444 159.168 281.782 159.168C281.016 159.168 280.354 159.042 279.794 158.79C279.234 158.538 278.767 158.197 278.394 157.768C278.03 157.339 277.759 156.844 277.582 156.284C277.404 155.715 277.316 155.113 277.316 154.478C277.316 153.815 277.414 153.195 277.61 152.616C277.806 152.037 278.095 151.533 278.478 151.104C278.87 150.665 279.35 150.32 279.92 150.068C280.498 149.816 281.17 149.69 281.936 149.69C282.44 149.69 282.944 149.746 283.448 149.858C283.952 149.961 284.386 150.105 284.75 150.292L284.456 151.3ZM287.432 151.986C287.432 152.219 287.474 152.415 287.558 152.574C287.651 152.723 287.791 152.859 287.978 152.98C288.174 153.101 288.417 153.218 288.706 153.33C289.005 153.433 289.359 153.554 289.77 153.694C290.115 153.806 290.456 153.937 290.792 154.086C291.128 154.226 291.427 154.403 291.688 154.618C291.959 154.823 292.173 155.085 292.332 155.402C292.491 155.71 292.57 156.088 292.57 156.536C292.57 157.012 292.477 157.418 292.29 157.754C292.103 158.09 291.856 158.365 291.548 158.58C291.24 158.785 290.885 158.935 290.484 159.028C290.083 159.121 289.667 159.168 289.238 159.168C288.631 159.168 288.067 159.093 287.544 158.944C287.021 158.795 286.569 158.613 286.186 158.398L286.48 157.376C286.657 157.497 286.835 157.614 287.012 157.726C287.189 157.829 287.381 157.917 287.586 157.992C287.801 158.067 288.034 158.127 288.286 158.174C288.538 158.221 288.827 158.244 289.154 158.244C289.574 158.244 289.933 158.207 290.232 158.132C290.531 158.057 290.773 157.955 290.96 157.824C291.147 157.684 291.282 157.521 291.366 157.334C291.45 157.147 291.492 156.947 291.492 156.732C291.492 156.415 291.417 156.149 291.268 155.934C291.119 155.71 290.923 155.519 290.68 155.36C290.447 155.201 290.185 155.071 289.896 154.968C289.616 154.856 289.336 154.753 289.056 154.66C288.655 154.529 288.291 154.389 287.964 154.24C287.637 154.091 287.357 153.913 287.124 153.708C286.9 153.503 286.723 153.265 286.592 152.994C286.471 152.723 286.41 152.401 286.41 152.028C286.41 151.608 286.485 151.253 286.634 150.964C286.793 150.665 287.003 150.423 287.264 150.236C287.535 150.049 287.852 149.914 288.216 149.83C288.58 149.737 288.972 149.69 289.392 149.69C289.896 149.69 290.381 149.741 290.848 149.844C291.315 149.947 291.711 150.073 292.038 150.222L291.744 151.3C291.595 151.169 291.417 151.062 291.212 150.978C291.016 150.885 290.806 150.815 290.582 150.768C290.367 150.712 290.153 150.675 289.938 150.656C289.723 150.628 289.523 150.614 289.336 150.614C288.748 150.614 288.281 150.726 287.936 150.95C287.6 151.165 287.432 151.51 287.432 151.986ZM295.143 151.986C295.143 152.219 295.185 152.415 295.269 152.574C295.362 152.723 295.502 152.859 295.689 152.98C295.885 153.101 296.128 153.218 296.417 153.33C296.716 153.433 297.07 153.554 297.481 153.694C297.826 153.806 298.167 153.937 298.503 154.086C298.839 154.226 299.138 154.403 299.399 154.618C299.67 154.823 299.884 155.085 300.043 155.402C300.202 155.71 300.281 156.088 300.281 156.536C300.281 157.012 300.188 157.418 300.001 157.754C299.814 158.09 299.567 158.365 299.259 158.58C298.951 158.785 298.596 158.935 298.195 159.028C297.794 159.121 297.378 159.168 296.949 159.168C296.342 159.168 295.778 159.093 295.255 158.944C294.732 158.795 294.28 158.613 293.897 158.398L294.191 157.376C294.368 157.497 294.546 157.614 294.723 157.726C294.9 157.829 295.092 157.917 295.297 157.992C295.512 158.067 295.745 158.127 295.997 158.174C296.249 158.221 296.538 158.244 296.865 158.244C297.285 158.244 297.644 158.207 297.943 158.132C298.242 158.057 298.484 157.955 298.671 157.824C298.858 157.684 298.993 157.521 299.077 157.334C299.161 157.147 299.203 156.947 299.203 156.732C299.203 156.415 299.128 156.149 298.979 155.934C298.83 155.71 298.634 155.519 298.391 155.36C298.158 155.201 297.896 155.071 297.607 154.968C297.327 154.856 297.047 154.753 296.767 154.66C296.366 154.529 296.002 154.389 295.675 154.24C295.348 154.091 295.068 153.913 294.835 153.708C294.611 153.503 294.434 153.265 294.303 152.994C294.182 152.723 294.121 152.401 294.121 152.028C294.121 151.608 294.196 151.253 294.345 150.964C294.504 150.665 294.714 150.423 294.975 150.236C295.246 150.049 295.563 149.914 295.927 149.83C296.291 149.737 296.683 149.69 297.103 149.69C297.607 149.69 298.092 149.741 298.559 149.844C299.026 149.947 299.422 150.073 299.749 150.222L299.455 151.3C299.306 151.169 299.128 151.062 298.923 150.978C298.727 150.885 298.517 150.815 298.293 150.768C298.078 150.712 297.864 150.675 297.649 150.656C297.434 150.628 297.234 150.614 297.047 150.614C296.459 150.614 295.992 150.726 295.647 150.95C295.311 151.165 295.143 151.51 295.143 151.986Z" fill="white"/>
<path fill-rule="evenodd" clip-rule="evenodd" d="M138.087 52L131 52C129.343 52 128 53.3431 128 55V89C128 90.6569 129.343 92 131 92H134.306C136.23 79.5396 147.001 70 160 70C172.999 70 183.77 79.5396 185.694 92H189C190.657 92 192 90.6569 192 89V55C192 53.3431 190.657 52 189 52H181.913C177.292 59.2166 169.205 64 160 64C150.795 64 142.708 59.2166 138.087 52Z" fill="black"/>
</svg>
